<?xml version="1.0" encoding="UTF-8" standalone="no"?>
<!DOCTYPE svg PUBLIC "-//W3C//DTD SVG 1.1//EN"
 "http://www.w3.org/Graphics/SVG/1.1/DTD/svg11.dtd">
<!-- Generated by graphviz version 2.40.1 (20161225.0304)
 -->
<!-- Title: G Pages: 1 -->
<svg width="734pt" height="810pt"
 viewBox="0.00 0.00 733.59 810.00" xmlns="http://www.w3.org/2000/svg" xmlns:xlink="http://www.w3.org/1999/xlink">
<g id="graph0" class="graph" transform="scale(1 1) rotate(0) translate(4 806)">
<title>G</title>
<polygon fill="#ffffff" stroke="transparent" points="-4,4 -4,-806 729.589,-806 729.589,4 -4,4"/>
<g id="clust1" class="cluster">
<title>cluster_Global</title>
<path fill="none" stroke="#c0c0c0" d="M154.5762,-152C154.5762,-152 705.589,-152 705.589,-152 711.589,-152 717.589,-158 717.589,-164 717.589,-164 717.589,-782 717.589,-782 717.589,-788 711.589,-794 705.589,-794 705.589,-794 154.5762,-794 154.5762,-794 148.5762,-794 142.5762,-788 142.5762,-782 142.5762,-782 142.5762,-164 142.5762,-164 142.5762,-158 148.5762,-152 154.5762,-152"/>
<text text-anchor="middle" x="430.0826" y="-781.2" font-family="Times,serif" font-size="11.00" fill="#c0c0c0">Global</text>
</g>
<g id="clust2" class="cluster">
<title>cluster_\smtech</title>
<path fill="none" stroke="#c0c0c0" d="M162.5762,-160C162.5762,-160 697.589,-160 697.589,-160 703.589,-160 709.589,-166 709.589,-172 709.589,-172 709.589,-755 709.589,-755 709.589,-761 703.589,-767 697.589,-767 697.589,-767 162.5762,-767 162.5762,-767 156.5762,-767 150.5762,-761 150.5762,-755 150.5762,-755 150.5762,-172 150.5762,-172 150.5762,-166 156.5762,-160 162.5762,-160"/>
<text text-anchor="middle" x="430.0826" y="-754.2" font-family="Times,serif" font-size="11.00" fill="#c0c0c0">smtech</text>
</g>
<g id="clust3" class="cluster">
<title>cluster_\smtech\GradingAnalytics</title>
<path fill="none" stroke="#c0c0c0" d="M170.5762,-168C170.5762,-168 689.589,-168 689.589,-168 695.589,-168 701.589,-174 701.589,-180 701.589,-180 701.589,-728 701.589,-728 701.589,-734 695.589,-740 689.589,-740 689.589,-740 170.5762,-740 170.5762,-740 164.5762,-740 158.5762,-734 158.5762,-728 158.5762,-728 158.5762,-180 158.5762,-180 158.5762,-174 164.5762,-168 170.5762,-168"/>
<text text-anchor="middle" x="430.0826" y="-727.2" font-family="Times,serif" font-size="11.00" fill="#c0c0c0">GradingAnalytics</text>
</g>
<g id="clust6" class="cluster">
<title>cluster_\smtech\GradingAnalytics\HeatMap</title>
<path fill="none" stroke="#c0c0c0" d="M576.4745,-222C576.4745,-222 650.4853,-222 650.4853,-222 656.4853,-222 662.4853,-228 662.4853,-234 662.4853,-234 662.4853,-389 662.4853,-389 662.4853,-395 656.4853,-401 650.4853,-401 650.4853,-401 576.4745,-401 576.4745,-401 570.4745,-401 564.4745,-395 564.4745,-389 564.4745,-389 564.4745,-234 564.4745,-234 564.4745,-228 570.4745,-222 576.4745,-222"/>
<text text-anchor="middle" x="613.4799" y="-388.2" font-family="Times,serif" font-size="11.00" fill="#c0c0c0">HeatMap</text>
</g>
<g id="clust4" class="cluster">
<title>cluster_\smtech\GradingAnalytics\Snapshots</title>
<path fill="none" stroke="#c0c0c0" d="M178.5762,-409C178.5762,-409 681.589,-409 681.589,-409 687.589,-409 693.589,-415 693.589,-421 693.589,-421 693.589,-701 693.589,-701 693.589,-707 687.589,-713 681.589,-713 681.589,-713 178.5762,-713 178.5762,-713 172.5762,-713 166.5762,-707 166.5762,-701 166.5762,-701 166.5762,-421 166.5762,-421 166.5762,-415 172.5762,-409 178.5762,-409"/>
<text text-anchor="middle" x="430.0826" y="-700.2" font-family="Times,serif" font-size="11.00" fill="#c0c0c0">Snapshots</text>
</g>
<g id="clust5" class="cluster">
<title>cluster_\smtech\GradingAnalytics\Snapshots\Exceptions</title>
<path fill="none" stroke="#c0c0c0" d="M553.3708,-517C553.3708,-517 673.589,-517 673.589,-517 679.589,-517 685.589,-523 685.589,-529 685.589,-529 685.589,-576 685.589,-576 685.589,-582 679.589,-588 673.589,-588 673.589,-588 553.3708,-588 553.3708,-588 547.3708,-588 541.3708,-582 541.3708,-576 541.3708,-576 541.3708,-529 541.3708,-529 541.3708,-523 547.3708,-517 553.3708,-517"/>
<text text-anchor="middle" x="613.4799" y="-575.2" font-family="Times,serif" font-size="11.00" fill="#c0c0c0">Exceptions</text>
</g>
<!-- \\smtech\\GradingAnalytics\\Snapshots\\Exceptions\\SnapshotException -->
<g id="node1" class="node">
<title>\\smtech\\GradingAnalytics\\Snapshots\\Exceptions\\SnapshotException</title>
<polygon fill="none" stroke="#000000" points="677.6983,-561 549.2614,-561 549.2614,-525 677.6983,-525 677.6983,-561"/>
<text text-anchor="middle" x="613.4799" y="-539.7" font-family="Courier,monospace" font-size="11.00" fill="#000000">SnapshotException</text>
</g>
<!-- \\smtech\\ReflexiveCanvasLTI\\Exception\\ConfigurationException -->
<g id="node11" class="node">
<title>\\smtech\\ReflexiveCanvasLTI\\Exception\\ConfigurationException</title>
<ellipse fill="none" stroke="#000000" cx="238.6854" cy="-126" rx="238.8709" ry="18"/>
<text text-anchor="middle" x="238.6854" y="-121.8" font-family="Times,serif" font-size="14.00" fill="#c0c0c0">\smtech\ReflexiveCanvasLTI\Exception\ConfigurationException</text>
</g>
<!-- \\smtech\\GradingAnalytics\\Snapshots\\Exceptions\\SnapshotException&#45;&gt;\\smtech\\ReflexiveCanvasLTI\\Exception\\ConfigurationException -->
<g id="edge1" class="edge">
<title>\\smtech\\GradingAnalytics\\Snapshots\\Exceptions\\SnapshotException&#45;&gt;\\smtech\\ReflexiveCanvasLTI\\Exception\\ConfigurationException</title>
<path fill="none" stroke="#000000" d="M549.1647,-526.4188C546.4267,-524.7795 543.8106,-522.9786 541.3708,-521 495.6369,-483.9126 510.9052,-453.3994 477.3708,-405 408.0764,-304.989 309.4236,-199.0126 263.714,-151.5646"/>
<polygon fill="none" stroke="#000000" points="266.0546,-148.9502 256.5865,-144.1956 261.0231,-153.8168 266.0546,-148.9502"/>
</g>
<!-- \\smtech\\GradingAnalytics\\Snapshots\\Domain -->
<g id="node2" class="node">
<title>\\smtech\\GradingAnalytics\\Snapshots\\Domain</title>
<polygon fill="none" stroke="#000000" points="641.0877,-507 585.8721,-507 585.8721,-471 641.0877,-471 641.0877,-507"/>
<text text-anchor="middle" x="613.4799" y="-485.7" font-family="Courier,monospace" font-size="11.00" fill="#000000">Domain</text>
</g>
<!-- \\MyCLabs\\Enum\\Enum -->
<g id="node12" class="node">
<title>\\MyCLabs\\Enum\\Enum</title>
<ellipse fill="none" stroke="#000000" cx="238.6854" cy="-72" rx="95.2" ry="18"/>
<text text-anchor="middle" x="238.6854" y="-67.8" font-family="Times,serif" font-size="14.00" fill="#c0c0c0">\MyCLabs\Enum\Enum</text>
</g>
<!-- \\smtech\\GradingAnalytics\\Snapshots\\Domain&#45;&gt;\\MyCLabs\\Enum\\Enum -->
<g id="edge2" class="edge">
<title>\\smtech\\GradingAnalytics\\Snapshots\\Domain&#45;&gt;\\MyCLabs\\Enum\\Enum</title>
<path fill="none" stroke="#000000" d="M585.6288,-485.3686C570.336,-481.9082 552.3087,-475.1582 541.3708,-462 436.6482,-336.021 596.7379,-211.2008 477.3708,-99 435.6371,-59.7718 369.9825,-54.864 318.0863,-58.7419"/>
<polygon fill="none" stroke="#000000" points="317.561,-55.2743 307.9016,-59.627 318.1672,-62.248 317.561,-55.2743"/>
</g>
<!-- \\smtech\\GradingAnalytics\\Snapshots\\CacheableDatabase -->
<g id="node3" class="node">
<title>\\smtech\\GradingAnalytics\\Snapshots\\CacheableDatabase</title>
<polygon fill="none" stroke="#000000" points="302.9038,-659 174.4669,-659 174.4669,-623 302.9038,-623 302.9038,-659"/>
<text text-anchor="middle" x="238.6854" y="-637.7" font-family="Courier,monospace" font-size="11.00" fill="#000000">CacheableDatabase</text>
</g>
<!-- \\smtech\\GradingAnalytics\\Snapshots\\Snapshot -->
<g id="node4" class="node">
<title>\\smtech\\GradingAnalytics\\Snapshots\\Snapshot</title>
<polygon fill="none" stroke="#000000" points="647.7887,-686 579.171,-686 579.171,-650 647.7887,-650 647.7887,-686"/>
<text text-anchor="middle" x="613.4799" y="-664.7" font-family="Courier,monospace" font-size="11.00" fill="#000000">Snapshot</text>
</g>
<!-- \\smtech\\GradingAnalytics\\Snapshots\\Snapshot&#45;&gt;\\smtech\\GradingAnalytics\\Snapshots\\CacheableDatabase -->
<g id="edge3" class="edge">
<title>\\smtech\\GradingAnalytics\\Snapshots\\Snapshot&#45;&gt;\\smtech\\GradingAnalytics\\Snapshots\\CacheableDatabase</title>
<path fill="none" stroke="#000000" d="M578.8919,-665.5083C518.7622,-661.1766 393.6861,-652.1662 313.0961,-646.3605"/>
<polygon fill="none" stroke="#000000" points="313.234,-642.8615 303.0083,-645.6338 312.7309,-649.8434 313.234,-642.8615"/>
</g>
<!-- \\smtech\\GradingAnalytics\\Snapshots\\History -->
<g id="node5" class="node">
<title>\\smtech\\GradingAnalytics\\Snapshots\\History</title>
<polygon fill="none" stroke="#000000" points="644.6878,-632 582.272,-632 582.272,-596 644.6878,-596 644.6878,-632"/>
<text text-anchor="middle" x="613.4799" y="-610.7" font-family="Courier,monospace" font-size="11.00" fill="#000000">History</text>
</g>
<!-- \\smtech\\GradingAnalytics\\Snapshots\\History&#45;&gt;\\smtech\\GradingAnalytics\\Snapshots\\CacheableDatabase -->
<g id="edge6" class="edge">
<title>\\smtech\\GradingAnalytics\\Snapshots\\History&#45;&gt;\\smtech\\GradingAnalytics\\Snapshots\\CacheableDatabase</title>
<path fill="none" stroke="#000000" d="M582.1698,-616.2556C523.3962,-620.4896 395.0903,-629.7327 313.0092,-635.6457"/>
<polygon fill="none" stroke="#000000" points="312.711,-632.1581 302.9883,-636.3676 313.214,-639.14 312.711,-632.1581"/>
</g>
<!-- \\smtech\\GradingAnalytics\\Snapshots\\Average -->
<g id="node6" class="node">
<title>\\smtech\\GradingAnalytics\\Snapshots\\Average</title>
<polygon fill="none" stroke="#000000" points="644.6878,-453 582.272,-453 582.272,-417 644.6878,-417 644.6878,-453"/>
<text text-anchor="middle" x="613.4799" y="-431.7" font-family="Courier,monospace" font-size="11.00" fill="#000000">Average</text>
</g>
<!-- \\smtech\\GradingAnalytics\\Snapshots\\Average&#45;&gt;\\MyCLabs\\Enum\\Enum -->
<g id="edge7" class="edge">
<title>\\smtech\\GradingAnalytics\\Snapshots\\Average&#45;&gt;\\MyCLabs\\Enum\\Enum</title>
<path fill="none" stroke="#000000" d="M582.1019,-428.9911C567.6895,-424.6628 551.572,-417.3259 541.3708,-405 452.7828,-297.9614 580.1039,-192.5467 477.3708,-99 435.4549,-60.8323 370.7527,-55.586 319.2825,-59.0603"/>
<polygon fill="none" stroke="#000000" points="318.8665,-55.5822 309.1755,-59.8642 319.4216,-62.5602 318.8665,-55.5822"/>
</g>
<!-- \\smtech\\GradingAnalytics\\HeatMap\\Comparison -->
<g id="node7" class="node">
<title>\\smtech\\GradingAnalytics\\HeatMap\\Comparison</title>
<polygon fill="none" stroke="#000000" points="654.4906,-374 572.4691,-374 572.4691,-338 654.4906,-338 654.4906,-374"/>
<text text-anchor="middle" x="613.4799" y="-352.7" font-family="Courier,monospace" font-size="11.00" fill="#000000">Comparison</text>
</g>
<!-- \\smtech\\GradingAnalytics\\HeatMap\\Comparison&#45;&gt;\\MyCLabs\\Enum\\Enum -->
<g id="edge5" class="edge">
<title>\\smtech\\GradingAnalytics\\HeatMap\\Comparison&#45;&gt;\\MyCLabs\\Enum\\Enum</title>
<path fill="none" stroke="#000000" d="M572.4721,-347.9849C561.0785,-343.9708 549.5908,-337.9671 541.3708,-329 469.6714,-250.7844 558.112,-167.8427 477.3708,-99 435.2133,-63.0552 372.5332,-57.1455 321.9831,-59.7781"/>
<polygon fill="none" stroke="#000000" points="321.4741,-56.3035 311.7188,-60.4368 321.9224,-63.2891 321.4741,-56.3035"/>
</g>
<!-- \\smtech\\GradingAnalytics\\HeatMap\\HeatMap -->
<g id="node8" class="node">
<title>\\smtech\\GradingAnalytics\\HeatMap\\HeatMap</title>
<polygon fill="none" stroke="#000000" points="644.6878,-320 582.272,-320 582.272,-284 644.6878,-284 644.6878,-320"/>
<text text-anchor="middle" x="613.4799" y="-298.7" font-family="Courier,monospace" font-size="11.00" fill="#000000">HeatMap</text>
</g>
<!-- \\smtech\\GradingAnalytics\\HeatMap\\Level -->
<g id="node9" class="node">
<title>\\smtech\\GradingAnalytics\\HeatMap\\Level</title>
<polygon fill="none" stroke="#000000" points="640.4799,-266 586.4799,-266 586.4799,-230 640.4799,-230 640.4799,-266"/>
<text text-anchor="middle" x="613.4799" y="-244.7" font-family="Courier,monospace" font-size="11.00" fill="#000000">Level</text>
</g>
<!-- \\smtech\\GradingAnalytics\\Toolbox -->
<g id="node10" class="node">
<title>\\smtech\\GradingAnalytics\\Toolbox</title>
<polygon fill="none" stroke="#000000" points="644.6878,-212 582.272,-212 582.272,-176 644.6878,-176 644.6878,-212"/>
<text text-anchor="middle" x="613.4799" y="-190.7" font-family="Courier,monospace" font-size="11.00" fill="#000000">Toolbox</text>
</g>
<!-- \\smtech\\StMarksReflexiveCanvasLTI\\Toolbox -->
<g id="node13" class="node">
<title>\\smtech\\StMarksReflexiveCanvasLTI\\Toolbox</title>
<ellipse fill="none" stroke="#000000" cx="238.6854" cy="-18" rx="174.9257" ry="18"/>
<text text-anchor="middle" x="238.6854" y="-13.8" font-family="Times,serif" font-size="14.00" fill="#c0c0c0">\smtech\StMarksReflexiveCanvasLTI\Toolbox</text>
</g>
<!-- \\smtech\\GradingAnalytics\\Toolbox&#45;&gt;\\smtech\\StMarksReflexiveCanvasLTI\\Toolbox -->
<g id="edge4" class="edge">
<title>\\smtech\\GradingAnalytics\\Toolbox&#45;&gt;\\smtech\\StMarksReflexiveCanvasLTI\\Toolbox</title>
<path fill="none" stroke="#000000" d="M603.1413,-175.9406C583.4095,-143.3807 536.9849,-75.4028 477.3708,-45 459.2527,-35.7599 439.3754,-29.0605 419.0666,-24.2691"/>
<polygon fill="none" stroke="#000000" points="419.5867,-20.7998 409.068,-22.0674 418.0813,-27.6361 419.5867,-20.7998"/>
</g>
</g>
</svg>
