<?xml version="1.0" encoding="UTF-8" standalone="no"?>
<!DOCTYPE svg PUBLIC "-//W3C//DTD SVG 1.1//EN"
 "http://www.w3.org/Graphics/SVG/1.1/DTD/svg11.dtd">
<!-- Generated by graphviz version 2.40.1 (20161225.0304)
 -->
<!-- Title: G Pages: 1 -->
<svg width="532pt" height="300pt"
 viewBox="0.00 0.00 531.63 300.00" xmlns="http://www.w3.org/2000/svg" xmlns:xlink="http://www.w3.org/1999/xlink">
<g id="graph0" class="graph" transform="scale(1 1) rotate(0) translate(4 296)">
<title>G</title>
<polygon fill="#ffffff" stroke="transparent" points="-4,4 -4,-296 527.633,-296 527.633,4 -4,4"/>
<g id="clust1" class="cluster">
<title>cluster_Global</title>
<path fill="none" stroke="#c0c0c0" d="M401.4255,-8C401.4255,-8 503.633,-8 503.633,-8 509.633,-8 515.633,-14 515.633,-20 515.633,-20 515.633,-272 515.633,-272 515.633,-278 509.633,-284 503.633,-284 503.633,-284 401.4255,-284 401.4255,-284 395.4255,-284 389.4255,-278 389.4255,-272 389.4255,-272 389.4255,-20 389.4255,-20 389.4255,-14 395.4255,-8 401.4255,-8"/>
<text text-anchor="middle" x="452.5292" y="-271.2" font-family="Times,serif" font-size="11.00" fill="#c0c0c0">Global</text>
</g>
<g id="clust2" class="cluster">
<title>cluster_\smtech</title>
<path fill="none" stroke="#c0c0c0" d="M409.4255,-16C409.4255,-16 495.633,-16 495.633,-16 501.633,-16 507.633,-22 507.633,-28 507.633,-28 507.633,-245 507.633,-245 507.633,-251 501.633,-257 495.633,-257 495.633,-257 409.4255,-257 409.4255,-257 403.4255,-257 397.4255,-251 397.4255,-245 397.4255,-245 397.4255,-28 397.4255,-28 397.4255,-22 403.4255,-16 409.4255,-16"/>
<text text-anchor="middle" x="452.5292" y="-244.2" font-family="Times,serif" font-size="11.00" fill="#c0c0c0">smtech</text>
</g>
<g id="clust3" class="cluster">
<title>cluster_\smtech\GradingAnalytics</title>
<path fill="none" stroke="#c0c0c0" d="M417.4255,-24C417.4255,-24 487.633,-24 487.633,-24 493.633,-24 499.633,-30 499.633,-36 499.633,-36 499.633,-218 499.633,-218 499.633,-224 493.633,-230 487.633,-230 487.633,-230 417.4255,-230 417.4255,-230 411.4255,-230 405.4255,-224 405.4255,-218 405.4255,-218 405.4255,-36 405.4255,-36 405.4255,-30 411.4255,-24 417.4255,-24"/>
<text text-anchor="middle" x="452.5292" y="-217.2" font-family="Times,serif" font-size="11.00" fill="#c0c0c0">GradingAnalytics</text>
</g>
<g id="clust4" class="cluster">
<title>cluster_\smtech\GradingAnalytics\HeatMap</title>
<path fill="none" stroke="#c0c0c0" d="M425.4255,-78C425.4255,-78 479.633,-78 479.633,-78 485.633,-78 491.633,-84 491.633,-90 491.633,-90 491.633,-191 491.633,-191 491.633,-197 485.633,-203 479.633,-203 479.633,-203 425.4255,-203 425.4255,-203 419.4255,-203 413.4255,-197 413.4255,-191 413.4255,-191 413.4255,-90 413.4255,-90 413.4255,-84 419.4255,-78 425.4255,-78"/>
<text text-anchor="middle" x="452.5292" y="-190.2" font-family="Times,serif" font-size="11.00" fill="#c0c0c0">HeatMap</text>
</g>
<!-- \\smtech\\GradingAnalytics\\HeatMap\\HeatMap -->
<g id="node1" class="node">
<title>\\smtech\\GradingAnalytics\\HeatMap\\HeatMap</title>
<polygon fill="none" stroke="#000000" points="483.7371,-176 421.3214,-176 421.3214,-140 483.7371,-140 483.7371,-176"/>
<text text-anchor="middle" x="452.5292" y="-154.7" font-family="Courier,monospace" font-size="11.00" fill="#000000">HeatMap</text>
</g>
<!-- \\smtech\\GradingAnalytics\\HeatMap\\Level -->
<g id="node2" class="node">
<title>\\smtech\\GradingAnalytics\\HeatMap\\Level</title>
<polygon fill="none" stroke="#000000" points="479.5292,-122 425.5292,-122 425.5292,-86 479.5292,-86 479.5292,-122"/>
<text text-anchor="middle" x="452.5292" y="-100.7" font-family="Courier,monospace" font-size="11.00" fill="#000000">Level</text>
</g>
<!-- \\smtech\\GradingAnalytics\\Toolbox -->
<g id="node3" class="node">
<title>\\smtech\\GradingAnalytics\\Toolbox</title>
<polygon fill="none" stroke="#000000" points="483.7371,-68 421.3214,-68 421.3214,-32 483.7371,-32 483.7371,-68"/>
<text text-anchor="middle" x="452.5292" y="-46.7" font-family="Courier,monospace" font-size="11.00" fill="#000000">Toolbox</text>
</g>
<!-- \\smtech\\StMarksReflexiveCanvasLTI\\Toolbox -->
<g id="node4" class="node">
<title>\\smtech\\StMarksReflexiveCanvasLTI\\Toolbox</title>
<ellipse fill="none" stroke="#000000" cx="174.7127" cy="-50" rx="174.9257" ry="18"/>
<text text-anchor="middle" x="174.7127" y="-45.8" font-family="Times,serif" font-size="14.00" fill="#c0c0c0">\smtech\StMarksReflexiveCanvasLTI\Toolbox</text>
</g>
<!-- \\smtech\\GradingAnalytics\\Toolbox&#45;&gt;\\smtech\\StMarksReflexiveCanvasLTI\\Toolbox -->
<g id="edge1" class="edge">
<title>\\smtech\\GradingAnalytics\\Toolbox&#45;&gt;\\smtech\\StMarksReflexiveCanvasLTI\\Toolbox</title>
<path fill="none" stroke="#000000" d="M421.2002,-50C404.81,-50 383.2711,-50 359.7405,-50"/>
<polygon fill="none" stroke="#000000" points="359.5433,-46.5001 349.5433,-50 359.5432,-53.5001 359.5433,-46.5001"/>
</g>
</g>
</svg>
